<?xml version="1.0" encoding="utf-8"?>
<!-- Generator: Adobe Illustrator 17.0.0, SVG Export Plug-In . SVG Version: 6.00 Build 0)  -->
<!DOCTYPE svg PUBLIC "-//W3C//DTD SVG 1.1//EN" "http://www.w3.org/Graphics/SVG/1.1/DTD/svg11.dtd">
<svg version="1.1" id="Layer_1" xmlns="http://www.w3.org/2000/svg" xmlns:xlink="http://www.w3.org/1999/xlink" x="0px" y="0px"
	 width="180px" height="224px" viewBox="0 0 180 224" enable-background="new 0 0 180 224" xml:space="preserve">
<g>
	<g>
		<g>
			<circle fill="#373D49" cx="90" cy="77.822" r="76.812"/>
		</g>
		<g>
			<g>
				<path fill="#F9F7F4" d="M90,45.337c-26.691,0-50.216,13.552-64.072,34.149C39.784,100.084,63.309,113.635,90,113.635
					s50.216-13.552,64.072-34.149C140.216,58.889,116.691,45.337,90,45.337z"/>
			</g>
			<g>
				<defs>
					<path id="SVGID_1_" d="M90,45.122c-26.691,0-50.216,13.552-64.072,34.149C39.784,99.869,63.309,113.42,90,113.42
						s50.216-13.552,64.072-34.149C140.216,58.674,116.691,45.122,90,45.122z"/>
				</defs>
				<clipPath id="SVGID_2_">
					<use xlink:href="#SVGID_1_"  overflow="visible"/>
				</clipPath>
				<g clip-path="url(#SVGID_2_)">
					<circle fill="#2AD8CF" cx="89.912" cy="66.796" r="35.477"/>
				</g>
			</g>
			<g opacity="0.4">
				<g>
					<g>
						<circle fill="#FFFFFF" cx="89.794" cy="67.94" r="18.579"/>
					</g>
				</g>
			</g>
			<g>
				<path fill="#FFFFFF" d="M102.42,54.458C99.095,51.17,95,49,89.955,49H89v18.541L102.42,54.458z"/>
			</g>
			<g>
				<circle fill="#373D49" cx="89.809" cy="67.838" r="10.55"/>
			</g>
		</g>
		<g>
			<defs>
				<circle id="SVGID_3_" cx="90" cy="77.822" r="77.205"/>
			</defs>
			<clipPath id="SVGID_4_">
				<use xlink:href="#SVGID_3_"  overflow="visible"/>
			</clipPath>
			<g clip-path="url(#SVGID_4_)">
				<g>
					<path fill="#1ECFC9" d="M154,145h-52.457c-9.446,0-13.581-6.667-16.904-12.035c-2.782-4.494-4.659-7.249-7.965-7.271
						c-3.304,0.022-5.176,2.773-7.949,7.265C65.409,138.328,61.284,145,51.836,145H33v-4h18.836c6.595,0,9.666-5.219,12.721-10.167
						c2.796-4.529,5.665-9.98,12.448-10.022l0,0l0,0c6.296,0,9.18,5.343,11.983,9.871c3.064,4.95,5.958,10.319,12.555,10.319H154
						V145z"/>
				</g>
			</g>
			<g clip-path="url(#SVGID_4_)">
				<path fill="#1ECFC9" d="M165.608,57.073c-9.547-10.325-20.868-18.456-33.65-24.168c-13.23-5.912-27.347-8.91-41.958-8.91
					s-28.728,2.998-41.958,8.91c-12.782,5.712-24.104,13.843-33.65,24.168l-3.408-3.151c9.975-10.788,21.806-19.285,35.164-25.255
					c13.83-6.18,28.583-9.314,43.852-9.314s30.022,3.134,43.852,9.314c13.358,5.97,25.189,14.467,35.164,25.255L165.608,57.073z"/>
			</g>
		</g>
	</g>
	<g>
		<path fill="#1ECFC9" d="M42.386,175.89v3.164c0,0.89-0.692,1.582-1.582,1.582h-4.45v41.037c0,0.791-0.692,1.582-1.582,1.582
			h-3.164c-0.89,0-1.582-0.791-1.582-1.582v-41.037h-4.45c-0.89,0-1.582-0.692-1.582-1.582v-3.164c0-0.89,0.692-1.582,1.582-1.582
			h15.228C41.694,174.308,42.386,175,42.386,175.89z"/>
		<path fill="#1ECFC9" d="M72.348,175.89v45.784c0,0.89-0.692,1.582-1.582,1.582h-3.164c-0.791,0-1.582-0.692-1.582-1.582v-19.777
			H55.934v19.777c0,0.89-0.692,1.582-1.582,1.582h-3.164c-0.89,0-1.582-0.692-1.582-1.582V175.89c0-0.89,0.692-1.582,1.582-1.582
			h3.164c0.89,0,1.582,0.693,1.582,1.582v19.678H66.02V175.89c0-0.89,0.791-1.582,1.582-1.582h3.164
			C71.656,174.308,72.348,175,72.348,175.89z"/>
		<path fill="#1ECFC9" d="M103.398,185.68v26.106c0,6.329-5.142,11.47-11.372,11.47c-6.329,0-11.47-5.142-11.47-11.47V185.68
			c0-6.229,5.142-11.372,11.47-11.372C98.256,174.308,103.398,179.45,103.398,185.68z M97.07,185.68
			c0-2.769-2.274-5.043-5.043-5.043c-2.868,0-5.142,2.274-5.142,5.043v26.106c0,2.868,2.274,5.142,5.142,5.142
			c2.769,0,5.043-2.274,5.043-5.142V185.68z"/>
		<path fill="#1ECFC9" d="M126.044,175.89v3.164c0,0.89-0.692,1.582-1.582,1.582h-4.45v41.037c0,0.791-0.692,1.582-1.582,1.582
			h-3.164c-0.89,0-1.582-0.791-1.582-1.582v-41.037h-4.45c-0.89,0-1.582-0.692-1.582-1.582v-3.164c0-0.89,0.692-1.582,1.582-1.582
			h15.228C125.352,174.308,126.044,175,126.044,175.89z"/>
		<path fill="#1ECFC9" d="M156.006,175.89v45.784c0,0.89-0.692,1.582-1.582,1.582h-3.164c-0.791,0-1.582-0.692-1.582-1.582v-19.777
			h-10.086v19.777c0,0.89-0.692,1.582-1.582,1.582h-3.164c-0.89,0-1.582-0.692-1.582-1.582V175.89c0-0.89,0.692-1.582,1.582-1.582
			h3.164c0.89,0,1.582,0.693,1.582,1.582v19.678h10.086V175.89c0-0.89,0.791-1.582,1.582-1.582h3.164
			C155.314,174.308,156.006,175,156.006,175.89z"/>
	</g>
</g>
</svg>
