<?xml version="1.0" encoding="utf-8"?>
<!-- Generator: Adobe Illustrator 17.0.0, SVG Export Plug-In . SVG Version: 6.00 Build 0)  -->
<!DOCTYPE svg PUBLIC "-//W3C//DTD SVG 1.1//EN" "http://www.w3.org/Graphics/SVG/1.1/DTD/svg11.dtd">
<svg version="1.1" id="Layer_1" xmlns="http://www.w3.org/2000/svg" xmlns:xlink="http://www.w3.org/1999/xlink" x="0px" y="0px"
	 width="305px" height="109px" viewBox="0 0 305 109" enable-background="new 0 0 305 109" xml:space="preserve">
<g>
	<path fill="#373D49" d="M305,54.67c0,30.006-24.325,54.33-54.33,54.33H54.33C24.325,109,0,84.675,0,54.67V54.33
		C0,24.325,24.325,0,54.33,0H250.67C280.675,0,305,24.325,305,54.33V54.67z"/>
	<g>
		<rect x="56.353" y="39.9" fill="none" width="297.393" height="30.879"/>
		<text transform="matrix(1 0 0 1 146.7002 67.9287)" fill="#9AD17B" font-family="'Blanch-Caps'" font-size="56.6234">FORK ME</text>
		<path fill="#9AD17B" d="M107.424,40.467c-1.129,0-2.234,0.098-3.311,0.279c-2.687-8.782-11.008-15.183-20.864-15.183
			c-12.029,0-21.778,9.533-21.778,21.292c0,1.049,0.082,2.081,0.232,3.09c-0.577-0.066-1.161-0.11-1.756-0.11
			c-8.179,0-14.81,5.587-14.81,13.582c0,7.995,6.631,13.583,14.81,13.583h47.477c10.826,0,19.6-7.684,19.6-18.267
			C127.024,48.152,118.25,40.467,107.424,40.467z M86.082,70.43L74.724,57H82V44h8.993l-0.001,12.712l6.779,0.145L86.082,70.43z"/>
	</g>
</g>
</svg>
